<svg width="67" height="82" viewBox="0 0 67 82" fill="none" xmlns="http://www.w3.org/2000/svg">
<path d="M32.5186 52.4219C32.5186 51.2598 32.3363 50.2344 31.9717 49.3457C31.6299 48.4342 31.0146 47.6139 30.126 46.8848C29.2601 46.1556 28.0524 45.4606 26.5029 44.7998C24.9762 44.139 23.0394 43.4668 20.6924 42.7832C18.2314 42.054 16.0098 41.2451 14.0273 40.3564C12.0449 39.445 10.3473 38.4082 8.93457 37.2461C7.52181 36.084 6.43945 34.751 5.6875 33.2471C4.93555 31.7432 4.55957 30.0228 4.55957 28.0859C4.55957 26.1491 4.95833 24.3604 5.75586 22.7197C6.55339 21.0791 7.69271 19.6549 9.17383 18.4473C10.6777 17.2168 12.4665 16.2598 14.54 15.5762C16.6136 14.8926 18.9264 14.5508 21.4785 14.5508C25.2155 14.5508 28.3828 15.2686 30.9805 16.7041C33.6009 18.1169 35.5947 19.974 36.9619 22.2754C38.3291 24.554 39.0127 26.9922 39.0127 29.5898H32.4502C32.4502 27.7214 32.0514 26.0693 31.2539 24.6338C30.4564 23.1755 29.2487 22.0361 27.6309 21.2158C26.013 20.3727 23.9622 19.9512 21.4785 19.9512C19.1315 19.9512 17.1947 20.3044 15.668 21.0107C14.1413 21.7171 13.002 22.6742 12.25 23.8818C11.5208 25.0895 11.1562 26.4681 11.1562 28.0176C11.1562 29.0658 11.3727 30.0228 11.8057 30.8887C12.2614 31.7318 12.9564 32.5179 13.8906 33.2471C14.8477 33.9762 16.0553 34.6484 17.5137 35.2637C18.9948 35.8789 20.7607 36.4714 22.8115 37.041C25.637 37.8385 28.0752 38.7272 30.126 39.707C32.1768 40.6868 33.863 41.792 35.1846 43.0225C36.529 44.2301 37.5202 45.6087 38.1582 47.1582C38.819 48.6849 39.1494 50.4167 39.1494 52.3535C39.1494 54.3815 38.7393 56.2158 37.9189 57.8564C37.0986 59.4971 35.9251 60.8984 34.3984 62.0605C32.8717 63.2227 31.0374 64.1227 28.8955 64.7607C26.7764 65.376 24.4066 65.6836 21.7861 65.6836C19.4847 65.6836 17.2174 65.3646 14.9844 64.7266C12.7741 64.0885 10.7575 63.1315 8.93457 61.8555C7.13444 60.5794 5.6875 59.0072 4.59375 57.1387C3.52279 55.2474 2.9873 53.0599 2.9873 50.5762H9.5498C9.5498 52.2852 9.88021 53.7549 10.541 54.9854C11.2018 56.193 12.1019 57.1956 13.2412 57.9932C14.4033 58.7907 15.7135 59.3831 17.1719 59.7705C18.653 60.1351 20.1911 60.3174 21.7861 60.3174C24.0876 60.3174 26.0358 59.9984 27.6309 59.3604C29.2259 58.7223 30.4336 57.8109 31.2539 56.626C32.097 55.4411 32.5186 54.0397 32.5186 52.4219Z" fill="black"/>
<path d="M61.1479 31.8154V34.4985H47.6812V31.8154H61.1479ZM48.1938 21.1172V46H44.8955V21.1172H48.1938ZM64.019 21.1172V46H60.7378V21.1172H64.019Z" fill="black"/>
</svg>
